<svg width="156" height="40" viewBox="0 0 156 40" fill="none" xmlns="http://www.w3.org/2000/svg">
<path d="M4.90963 13.4171C7.6074 13.4171 9.79436 11.1715 9.79436 8.40142C9.79436 5.63134 7.6074 3.38574 4.90963 3.38574C2.21187 3.38574 0.0249023 5.63134 0.0249023 8.40142C0.0249023 11.1715 2.21187 13.4171 4.90963 13.4171Z" fill="white"/>
<path d="M27.2811 13.4168H20.5157C19.6853 13.4168 19.0015 12.7146 19.0015 11.8619V4.91521C19.0015 4.06255 19.6853 3.36035 20.5157 3.36035H27.2811C28.1115 3.36035 28.7954 4.06255 28.7954 4.91521V11.8619C28.7954 12.7397 28.1115 13.4168 27.2811 13.4168Z" fill="#00FFB9"/>
<path d="M9.79389 17.7021H9.5008H2.07601C0.928099 17.7021 0 18.6551 0 19.8338V27.7586V35.6583C0 36.8369 0.928099 37.7899 2.07601 37.7899H7.71788C8.86579 37.7899 9.79389 36.8369 9.79389 35.6583V29.8902C9.79389 28.7116 10.722 27.7586 11.8699 27.7586H17.2187C18.3666 27.7586 19.2947 26.8056 19.2947 25.6269V19.8338C19.2947 18.6551 18.3666 17.7021 17.2187 17.7021H9.79389Z" fill="#00DAFF"/>
<path d="M39.4775 3.33545H41.1475V13.4786H39.4775V3.33545Z" fill="white"/>
<path d="M42.9307 6.83782H44.6006V7.49175C44.9828 6.99767 45.5347 6.70703 46.1716 6.70703C46.9075 6.70703 47.5727 7.09939 48.0255 7.75332C48.4501 7.11392 49.1153 6.70703 49.9503 6.70703C51.323 6.70703 52.342 7.82598 52.342 9.27915V13.4788H50.672V9.40994C50.672 8.75601 50.2192 8.23287 49.5965 8.23287C48.9171 8.23287 48.4784 8.7996 48.4784 9.4826V13.4788H46.8084V9.40994C46.8084 8.75601 46.3555 8.23287 45.7045 8.23287C45.0394 8.23287 44.6148 8.7996 44.6148 9.4826V13.4788H42.9307V6.83782Z" fill="white"/>
<path d="M53.8848 6.83782H55.5548V7.54987C56.0642 7.02673 56.7577 6.70703 57.6069 6.70703C59.3476 6.70703 60.7912 8.23287 60.7912 10.1656C60.7912 12.0983 59.3476 13.6242 57.6069 13.6242C56.7577 13.6242 56.0642 13.3045 55.5548 12.7813V16.5305H53.8848V6.83782ZM59.1353 10.1656C59.1353 9.10477 58.3145 8.26193 57.2955 8.26193C56.2765 8.26193 55.4415 9.10477 55.4415 10.1656C55.4415 11.2264 56.2765 12.0693 57.2955 12.0693C58.3145 12.0547 59.1353 11.2119 59.1353 10.1656Z" fill="white"/>
<path d="M61.626 10.1656C61.626 8.2474 63.0978 6.70703 65.0509 6.70703C66.9756 6.70703 68.4616 8.23287 68.4616 10.1656C68.4616 12.0983 66.9756 13.6242 65.0509 13.6242C63.0978 13.6096 61.626 12.0838 61.626 10.1656ZM66.8482 10.1656C66.8482 9.1193 66.0415 8.30553 65.0509 8.30553C64.0177 8.30553 63.211 9.1193 63.211 10.1656C63.211 11.2119 64.0177 12.0402 65.0509 12.0402C66.0415 12.0257 66.8482 11.1973 66.8482 10.1656Z" fill="white"/>
<path d="M69.1411 12.6213L70.0752 11.4443C70.528 11.9238 71.1224 12.2145 71.6319 12.2145C72.1414 12.2145 72.4528 11.9384 72.4528 11.5751C72.4528 11.11 71.9291 10.9938 71.1507 10.7177C70.1459 10.3544 69.2968 9.88937 69.2968 8.72683C69.2968 7.37538 70.429 6.69238 71.6744 6.69238C72.6084 6.69238 73.401 7.07021 73.8963 7.63695L72.9198 8.65417C72.5518 8.27635 72.0565 8.01478 71.6178 8.01478C71.2074 8.01478 70.9385 8.23275 70.9385 8.58151C70.9385 9.032 71.4055 9.16278 72.1556 9.40982C73.1179 9.74405 74.0944 10.1945 74.0944 11.5169C74.0944 12.8684 73.0755 13.595 71.6744 13.595C70.5705 13.6095 69.6647 13.1445 69.1411 12.6213Z" fill="white"/>
<path d="M74.6748 12.6213L75.6089 11.4443C76.0617 11.9238 76.6561 12.2145 77.1656 12.2145C77.6751 12.2145 77.9865 11.9384 77.9865 11.5751C77.9865 11.11 77.4628 10.9938 76.6844 10.7177C75.6796 10.3544 74.8305 9.88937 74.8305 8.72683C74.8305 7.37538 75.9627 6.69238 77.2081 6.69238C78.1421 6.69238 78.9347 7.07021 79.43 7.63695L78.4535 8.65417C78.0855 8.27635 77.5902 8.01478 77.1515 8.01478C76.7411 8.01478 76.4722 8.23275 76.4722 8.58151C76.4722 9.032 76.9392 9.16278 77.6893 9.40982C78.6516 9.74405 79.6281 10.1945 79.6281 11.5169C79.6281 12.8684 78.6092 13.595 77.2081 13.595C76.1042 13.6095 75.1984 13.1445 74.6748 12.6213Z" fill="white"/>
<path d="M80.7319 4.67224C80.7319 4.12004 81.1848 3.68408 81.7084 3.68408C82.2462 3.68408 82.685 4.12004 82.685 4.67224C82.685 5.22445 82.2462 5.6604 81.7084 5.6604C81.1707 5.6604 80.7319 5.22445 80.7319 4.67224ZM80.8876 6.83748H82.5293V13.4785H80.8876V6.83748Z" fill="white"/>
<path d="M85.8693 12.6212L85.8268 13.4786H84.27V3.33545H85.94V7.59326C86.4353 6.98292 87.2137 6.67776 88.0063 6.67776C89.8178 6.67776 91.2472 8.21812 91.2472 10.1508C91.2472 12.0836 89.8178 13.6239 88.0063 13.6239C87.1147 13.6094 86.3504 13.2461 85.8693 12.6212ZM89.5772 10.1508C89.5772 9.06096 88.7705 8.21812 87.7232 8.21812C86.6901 8.21812 85.8693 9.06096 85.8693 10.1508C85.8693 11.2407 86.6901 12.0981 87.7232 12.0981C88.7705 12.0981 89.5772 11.2407 89.5772 10.1508Z" fill="white"/>
<path d="M92.5488 3.33545H94.2046V13.4786H92.5488V3.33545Z" fill="white"/>
<path d="M102.272 10.4561H97.1768C97.3042 11.5315 98.0543 12.229 99.0025 12.229C99.6818 12.229 100.319 11.8802 100.658 11.2699L101.989 11.8366C101.465 12.9265 100.375 13.6095 99.0166 13.6095C96.9646 13.6095 95.5493 12.0837 95.5493 10.1509C95.5493 8.21822 96.9929 6.69238 98.96 6.69238C100.828 6.69238 102.258 8.04384 102.286 10.0783L102.272 10.4561ZM97.3467 9.16279H100.517C100.248 8.49432 99.7384 8.0729 98.9742 8.0729C98.1817 8.05837 97.6297 8.47979 97.3467 9.16279Z" fill="white"/>
<path d="M106.733 3.33545H112.89V5.0502H108.403V7.54967H112.38V9.26441H108.403V13.4786H106.733V3.33545Z" fill="white"/>
<path d="M113.951 4.67225C113.951 4.12004 114.404 3.68408 114.928 3.68408C115.465 3.68408 115.904 4.12004 115.904 4.67225C115.904 5.22445 115.465 5.66041 114.928 5.66041C114.39 5.66041 113.951 5.22445 113.951 4.67225ZM114.107 6.83748H115.749V13.4785H114.107V6.83748Z" fill="white"/>
<path d="M117.489 6.83781H119.145V7.44815C119.612 6.9686 120.221 6.70703 120.872 6.70703C122.174 6.70703 123.193 7.79691 123.193 9.19195V13.4933H121.523V9.40993C121.523 8.71241 121.013 8.21833 120.348 8.21833C119.655 8.21833 119.145 8.72694 119.131 9.40993V13.4933H117.475V6.83781H117.489Z" fill="white"/>
<path d="M124.353 10.1508C124.353 8.23263 125.811 6.67773 127.551 6.67773C128.471 6.67773 129.179 7.0265 129.66 7.59323V6.83758H131.33V13.4786H129.773L129.731 12.6212C129.25 13.2461 128.514 13.6094 127.551 13.6094C125.797 13.6094 124.353 12.0836 124.353 10.1508ZM129.703 10.1508C129.703 9.09 128.896 8.24716 127.863 8.24716C126.83 8.24716 126.009 9.09 126.009 10.1508C126.009 11.2116 126.816 12.069 127.863 12.069C128.896 12.0545 129.703 11.1971 129.703 10.1508Z" fill="white"/>
<path d="M133.057 6.83781H134.713V7.44815C135.18 6.9686 135.789 6.70703 136.44 6.70703C137.742 6.70703 138.761 7.79691 138.761 9.19195V13.4933H137.091V9.40993C137.091 8.71241 136.581 8.21833 135.916 8.21833C135.222 8.21833 134.713 8.72694 134.699 9.40993V13.4933H133.043V6.83781H133.057Z" fill="white"/>
<path d="M139.921 10.1656C139.921 8.24739 141.393 6.70703 143.346 6.70703C143.827 6.70703 144.308 6.80875 144.719 6.99767V8.90132C144.393 8.50896 143.912 8.26192 143.346 8.26192C142.299 8.26192 141.52 9.10477 141.52 10.1656C141.52 11.2264 142.284 12.0547 143.346 12.0547C143.912 12.0547 144.393 11.8077 144.719 11.4153V13.3335C144.308 13.5224 143.827 13.6241 143.346 13.6241C141.393 13.6096 139.921 12.0838 139.921 10.1656Z" fill="white"/>
<path d="M152.417 10.4561H147.322C147.45 11.5315 148.2 12.229 149.148 12.229C149.827 12.229 150.464 11.8802 150.804 11.2699L152.134 11.8366C151.611 12.9265 150.521 13.6095 149.162 13.6095C147.11 13.6095 145.695 12.0837 145.695 10.1509C145.695 8.21822 147.138 6.69238 149.106 6.69238C150.974 6.69238 152.403 8.04384 152.431 10.0783L152.417 10.4561ZM147.478 9.16278H150.648C150.379 8.49432 149.87 8.0729 149.106 8.0729C148.327 8.05837 147.761 8.47979 147.478 9.16278Z" fill="white"/>
<path d="M44.5275 19.5677C46.2722 19.5677 47.7969 19.9427 49.1014 20.6928C50.4222 21.4429 51.4332 22.4702 52.1344 23.7748C52.8356 25.063 53.1862 26.4979 53.1862 28.0797C53.1862 29.6777 52.8356 31.1371 52.1344 32.4579C51.4332 33.7624 50.4222 34.7979 49.1014 35.5643C47.7969 36.3144 46.2722 36.6894 44.5275 36.6894H39.4888V19.5677H44.5275ZM44.5764 33.2162C45.5711 33.2162 46.4353 32.9879 47.1691 32.5313C47.9192 32.0747 48.4899 31.4551 48.8813 30.6724C49.2889 29.8897 49.4928 29.0254 49.4928 28.0797C49.4928 27.1339 49.2971 26.2778 48.9057 25.5114C48.5144 24.745 47.9436 24.1417 47.1936 23.7014C46.4435 23.2611 45.5711 23.041 44.5764 23.041H43.0843V33.2162H44.5764Z" fill="url(#paint0_linear_178_3369)"/>
<path d="M64.5041 33.8277H58.4136L57.3863 36.6894H53.4483L60.297 19.3965H62.5718L69.4205 36.6894H65.5069L64.5041 33.8277ZM63.3545 30.6235L61.4466 25.2423L59.5388 30.6235H63.3545Z" fill="url(#paint1_linear_178_3369)"/>
<path d="M79.6152 23.041H75.7261V36.6894H72.1305V23.041H68.1191V19.5677H79.6152V23.041Z" fill="url(#paint2_linear_178_3369)"/>
<path d="M89.3698 33.8277H83.2793L82.252 36.6894H78.314L85.1627 19.3965H87.4375L94.2862 36.6894H90.3726L89.3698 33.8277ZM88.2202 30.6235L86.3123 25.2423L84.4045 30.6235H88.2202Z" fill="url(#paint3_linear_178_3369)"/>
<path d="M113.229 33.2162V36.6894H103.934V19.5677H107.53V33.2162H113.229Z" fill="url(#paint4_linear_178_3369)"/>
<path d="M124.626 33.8277H118.536L117.508 36.6894H113.57L120.419 19.3965H122.694L129.542 36.6894H125.629L124.626 33.8277ZM123.476 30.6235L121.569 25.2423L119.661 30.6235H123.476Z" fill="url(#paint5_linear_178_3369)"/>
<path d="M140.584 27.4682C141.415 27.8758 142.068 28.4547 142.541 29.2048C143.014 29.9386 143.25 30.7947 143.25 31.7731C143.25 32.621 143.038 33.42 142.614 34.1701C142.206 34.9202 141.595 35.5317 140.78 36.0046C139.981 36.4612 139.018 36.6894 137.893 36.6894H131.069V19.5677H136.939C138.065 19.5677 139.018 19.7797 139.801 20.2037C140.584 20.6113 141.163 21.1657 141.538 21.8669C141.929 22.5518 142.125 23.31 142.125 24.1417C142.125 25.4951 141.611 26.6039 140.584 27.4682ZM134.665 23.041V26.4409H136.475C137.078 26.4409 137.559 26.2778 137.918 25.9517C138.293 25.6255 138.48 25.2179 138.48 24.7287C138.48 24.2232 138.301 23.8155 137.942 23.5057C137.6 23.1959 137.119 23.041 136.499 23.041H134.665ZM137.257 33.2406C137.91 33.2406 138.423 33.0613 138.798 32.7025C139.19 32.3275 139.385 31.8709 139.385 31.3328C139.385 30.811 139.19 30.3707 138.798 30.012C138.407 29.6532 137.893 29.4739 137.257 29.4739H134.665V33.2406H137.257Z" fill="url(#paint6_linear_178_3369)"/>
<path d="M148.466 36.6894H146.162C145.879 36.6894 145.646 36.4565 145.646 36.1737V33.8697C145.646 33.5869 145.879 33.354 146.162 33.354H148.466C148.749 33.354 148.981 33.5869 148.981 33.8697V36.1737C148.981 36.4648 148.749 36.6894 148.466 36.6894Z" fill="#00FFB9"/>
<defs>
<linearGradient id="paint0_linear_178_3369" x1="37.1994" y1="24.9945" x2="143.25" y2="24.9945" gradientUnits="userSpaceOnUse">
<stop stop-color="#12ECB8"/>
<stop offset="0.921875" stop-color="#00B4ED"/>
</linearGradient>
<linearGradient id="paint1_linear_178_3369" x1="37.1994" y1="24.9945" x2="143.25" y2="24.9945" gradientUnits="userSpaceOnUse">
<stop stop-color="#12ECB8"/>
<stop offset="0.921875" stop-color="#00B4ED"/>
</linearGradient>
<linearGradient id="paint2_linear_178_3369" x1="37.1994" y1="24.9945" x2="143.25" y2="24.9945" gradientUnits="userSpaceOnUse">
<stop stop-color="#12ECB8"/>
<stop offset="0.921875" stop-color="#00B4ED"/>
</linearGradient>
<linearGradient id="paint3_linear_178_3369" x1="37.1994" y1="24.9945" x2="143.25" y2="24.9945" gradientUnits="userSpaceOnUse">
<stop stop-color="#12ECB8"/>
<stop offset="0.921875" stop-color="#00B4ED"/>
</linearGradient>
<linearGradient id="paint4_linear_178_3369" x1="37.1994" y1="24.9945" x2="143.25" y2="24.9945" gradientUnits="userSpaceOnUse">
<stop stop-color="#12ECB8"/>
<stop offset="0.921875" stop-color="#00B4ED"/>
</linearGradient>
<linearGradient id="paint5_linear_178_3369" x1="37.1994" y1="24.9945" x2="143.25" y2="24.9945" gradientUnits="userSpaceOnUse">
<stop stop-color="#12ECB8"/>
<stop offset="0.921875" stop-color="#00B4ED"/>
</linearGradient>
<linearGradient id="paint6_linear_178_3369" x1="37.1994" y1="24.9945" x2="143.25" y2="24.9945" gradientUnits="userSpaceOnUse">
<stop stop-color="#12ECB8"/>
<stop offset="0.921875" stop-color="#00B4ED"/>
</linearGradient>
</defs>
</svg>
